<svg width="262" height="53" viewBox="0 0 262 53" fill="none" xmlns="http://www.w3.org/2000/svg">
<path d="M17.85 40.65C8.05 40.65 0.85 33.75 0.85 21.7C0.85 9.7 8.25 2.5 18 2.5C23.2 2.5 26.7 4.8 28.95 7.15L25.85 10.85C24 9 21.75 7.55 18.2 7.55C11.35 7.55 6.8 12.85 6.8 21.5C6.8 30.25 10.85 35.6 18.45 35.6C20.7 35.6 22.95 34.95 24.25 33.8V25.15H16.95V20.4H29.5V36.35C27.05 38.8 22.9 40.65 17.85 40.65ZM133.441 40.65C129.291 40.65 127.741 38 127.741 33.55V0.149997H133.491V33.85C133.491 35.4 134.141 35.95 134.841 35.95C135.091 35.95 135.291 35.95 135.791 35.85L136.541 40.2C135.841 40.45 134.891 40.65 133.441 40.65Z" fill="#EA4335"/>
<path d="M48.4086 40.65C41.6086 40.65 35.4586 35.4 35.4586 26.25C35.4586 17.1 41.6086 11.8 48.4086 11.8C55.2086 11.8 61.3586 17.1 61.3586 26.25C61.3586 35.4 55.2086 40.65 48.4086 40.65ZM48.4086 35.95C52.7586 35.95 55.4586 32.1 55.4586 26.25C55.4586 20.45 52.7586 16.55 48.4086 16.55C44.1086 16.55 41.4086 20.45 41.4086 26.25C41.4086 32.1 44.1086 35.95 48.4086 35.95ZM154.083 40.65C146.633 40.65 140.683 35.35 140.683 26.25C140.683 17.35 146.833 11.8 153.233 11.8C160.533 11.8 164.483 17.05 164.483 24.8C164.483 25.95 164.333 27.05 164.183 27.75H146.333C146.783 33 150.083 36.15 154.833 36.15C157.283 36.15 159.383 35.4 161.383 34.1L163.383 37.75C160.833 39.45 157.683 40.65 154.083 40.65ZM146.283 23.75H159.483C159.483 19.05 157.333 16.3 153.333 16.3C149.883 16.3 146.833 18.95 146.283 23.75Z" fill="#FBBC05"/>
<path d="M79.1215 40.65C72.3215 40.65 66.1715 35.4 66.1715 26.25C66.1715 17.1 72.3215 11.8 79.1215 11.8C85.9215 11.8 92.0715 17.1 92.0715 26.25C92.0715 35.4 85.9215 40.65 79.1215 40.65ZM79.1215 35.95C83.4715 35.95 86.1715 32.1 86.1715 26.25C86.1715 20.45 83.4715 16.55 79.1215 16.55C74.8215 16.55 72.1215 20.45 72.1215 26.25C72.1215 32.1 74.8215 35.95 79.1215 35.95Z" fill="#34A853"/>
<path d="M108.234 52.35C101.634 52.35 96.8344 49.9 96.8344 45.1C96.8344 42.8 98.2844 40.65 100.834 39.1V38.85C99.4344 38 98.3344 36.55 98.3344 34.3C98.3344 32.15 99.8844 30.3 101.434 29.2V29C99.5344 27.55 97.7844 24.95 97.7844 21.65C97.7844 15.45 102.734 11.8 108.434 11.8C109.984 11.8 111.384 12.1 112.434 12.5H122.184V16.8H116.934C117.984 17.9 118.734 19.75 118.734 21.85C118.734 27.85 114.184 31.3 108.434 31.3C107.184 31.3 105.784 31 104.584 30.45C103.684 31.25 103.084 32 103.084 33.35C103.084 35 104.184 36.05 107.684 36.05H112.734C119.234 36.05 122.634 38.05 122.634 42.75C122.634 48.05 117.034 52.35 108.234 52.35ZM108.434 27.6C111.284 27.6 113.634 25.35 113.634 21.65C113.634 18 111.334 15.85 108.434 15.85C105.534 15.85 103.234 17.95 103.234 21.65C103.234 25.35 105.584 27.6 108.434 27.6ZM109.084 48.55C113.884 48.55 117.084 46.2 117.084 43.65C117.084 41.35 115.284 40.65 111.934 40.65H107.784C106.484 40.65 105.234 40.5 104.084 40.25C102.434 41.45 101.734 42.85 101.734 44.25C101.734 46.95 104.534 48.55 109.084 48.55Z" fill="#4285F4"/>
<path d="M182.635 40V3.15H188.435V35.1H204.035V40H182.635ZM210.016 40V12.5H215.766V40H210.016ZM212.866 7.35C210.766 7.35 209.316 6 209.316 3.9C209.316 1.85 210.766 0.499999 212.866 0.499999C214.966 0.499999 216.466 1.85 216.466 3.9C216.466 6 214.966 7.35 212.866 7.35ZM231.821 40.65C228.021 40.65 224.171 39.05 221.471 36.85L224.171 33.15C226.621 35.05 229.021 36.3 231.971 36.3C235.271 36.3 236.821 34.7 236.821 32.6C236.821 30.1 233.721 29 230.771 27.85C227.071 26.45 223.021 24.5 223.021 19.85C223.021 15.25 226.721 11.8 232.821 11.8C236.471 11.8 239.521 13.3 241.721 15.05L239.021 18.6C237.121 17.2 235.171 16.2 232.921 16.2C229.871 16.2 228.471 17.7 228.471 19.6C228.471 21.95 231.171 22.85 234.171 23.95C238.021 25.4 242.271 27.1 242.271 32.3C242.271 36.9 238.621 40.65 231.821 40.65ZM256.522 40.65C250.322 40.65 248.172 36.8 248.172 31V17.1H244.172V12.8L248.472 12.5L249.122 4.9H253.922V12.5H261.072V17.1H253.922V31.05C253.922 34.35 255.072 36.05 257.922 36.05C258.872 36.05 260.072 35.75 260.872 35.4L261.922 39.65C260.372 40.15 258.522 40.65 256.522 40.65Z" fill="black"/>
</svg>
